<svg width="112" height="15" viewBox="0 0 112 15" fill="none" xmlns="http://www.w3.org/2000/svg">
<path d="M2.84 3.84V12H1.12V3.84H2.84ZM3.128 1.376C3.128 1.53067 3.096 1.67733 3.032 1.816C2.97333 1.95467 2.89067 2.07733 2.784 2.184C2.67733 2.28533 2.552 2.368 2.408 2.432C2.26933 2.49067 2.12 2.52 1.96 2.52C1.80533 2.52 1.65867 2.49067 1.52 2.432C1.38667 2.368 1.26933 2.28533 1.168 2.184C1.06667 2.07733 0.984 1.95467 0.92 1.816C0.861333 1.67733 0.832 1.53067 0.832 1.376C0.832 1.216 0.861333 1.06667 0.92 0.927999C0.984 0.789333 1.06667 0.669333 1.168 0.568C1.26933 0.461333 1.38667 0.378666 1.52 0.32C1.65867 0.255999 1.80533 0.223999 1.96 0.223999C2.12 0.223999 2.26933 0.255999 2.408 0.32C2.552 0.378666 2.67733 0.461333 2.784 0.568C2.89067 0.669333 2.97333 0.789333 3.032 0.927999C3.096 1.06667 3.128 1.216 3.128 1.376ZM6.62513 5.352C6.88113 4.83467 7.19046 4.42933 7.55313 4.136C7.91579 3.83733 8.35046 3.688 8.85713 3.688C9.03313 3.688 9.19846 3.70933 9.35313 3.752C9.50779 3.78933 9.64646 3.848 9.76913 3.928L9.64913 5.224C9.62779 5.31467 9.59313 5.37867 9.54513 5.416C9.50246 5.448 9.44379 5.464 9.36913 5.464C9.28913 5.464 9.17446 5.45067 9.02513 5.424C8.87579 5.392 8.71846 5.376 8.55313 5.376C8.31313 5.376 8.09979 5.41067 7.91313 5.48C7.73179 5.54933 7.56646 5.65067 7.41713 5.784C7.27313 5.91733 7.14513 6.08 7.03313 6.272C6.92113 6.464 6.81713 6.68267 6.72113 6.928V12H5.00113V3.84H6.00113C6.18246 3.84 6.30779 3.87467 6.37713 3.944C6.44646 4.008 6.49446 4.12267 6.52113 4.288L6.62513 5.352ZM10.9074 12V3.84H11.9474C12.182 3.84 12.3314 3.94933 12.3954 4.168L12.5074 4.88C12.6567 4.70933 12.8114 4.55467 12.9714 4.416C13.1314 4.272 13.302 4.14933 13.4834 4.048C13.67 3.94133 13.8674 3.85867 14.0754 3.8C14.2887 3.74133 14.518 3.712 14.7634 3.712C15.0247 3.712 15.2647 3.74933 15.4834 3.824C15.702 3.89867 15.894 4.00533 16.0594 4.144C16.23 4.28267 16.3767 4.45067 16.4994 4.648C16.622 4.84533 16.7234 5.06667 16.8034 5.312C16.926 5.02933 17.0807 4.78667 17.2674 4.584C17.454 4.38133 17.662 4.216 17.8914 4.088C18.1207 3.96 18.3634 3.86667 18.6194 3.808C18.8807 3.744 19.1447 3.712 19.4114 3.712C19.8487 3.712 20.238 3.78133 20.5794 3.92C20.926 4.05867 21.2167 4.26133 21.4514 4.528C21.6914 4.78933 21.8727 5.112 21.9954 5.496C22.118 5.88 22.1794 6.31733 22.1794 6.808V12H20.4594V6.808C20.4594 6.232 20.334 5.8 20.0834 5.512C19.838 5.21867 19.4727 5.072 18.9874 5.072C18.7687 5.072 18.5634 5.10933 18.3714 5.184C18.1794 5.25867 18.0114 5.368 17.8674 5.512C17.7234 5.656 17.6087 5.83733 17.5234 6.056C17.4434 6.26933 17.4034 6.52 17.4034 6.808V12H15.6834V6.808C15.6834 6.21067 15.5634 5.77333 15.3234 5.496C15.0834 5.21333 14.7314 5.072 14.2674 5.072C13.9474 5.072 13.6514 5.15467 13.3794 5.32C13.1074 5.48 12.8567 5.70133 12.6274 5.984V12H10.9074ZM25.9806 3.84V12H24.2606V3.84H25.9806ZM26.2686 1.376C26.2686 1.53067 26.2366 1.67733 26.1726 1.816C26.114 1.95467 26.0313 2.07733 25.9246 2.184C25.818 2.28533 25.6926 2.368 25.5486 2.432C25.41 2.49067 25.2606 2.52 25.1006 2.52C24.946 2.52 24.7993 2.49067 24.6606 2.432C24.5273 2.368 24.41 2.28533 24.3086 2.184C24.2073 2.07733 24.1246 1.95467 24.0606 1.816C24.002 1.67733 23.9726 1.53067 23.9726 1.376C23.9726 1.216 24.002 1.06667 24.0606 0.927999C24.1246 0.789333 24.2073 0.669333 24.3086 0.568C24.41 0.461333 24.5273 0.378666 24.6606 0.32C24.7993 0.255999 24.946 0.223999 25.1006 0.223999C25.2606 0.223999 25.41 0.255999 25.5486 0.32C25.6926 0.378666 25.818 0.461333 25.9246 0.568C26.0313 0.669333 26.114 0.789333 26.1726 0.927999C26.2366 1.06667 26.2686 1.216 26.2686 1.376Z" fill="url(#paint0_linear_282_1120)"/>
<path d="M34.4218 2.328C34.3738 2.408 34.3204 2.46933 34.2618 2.512C34.2084 2.54933 34.1418 2.568 34.0618 2.568C33.9711 2.568 33.8644 2.52267 33.7418 2.432C33.6191 2.34133 33.4644 2.24267 33.2778 2.136C33.0964 2.024 32.8751 1.92267 32.6138 1.832C32.3578 1.74133 32.0458 1.696 31.6778 1.696C31.3311 1.696 31.0244 1.744 30.7578 1.84C30.4964 1.93067 30.2751 2.056 30.0938 2.216C29.9178 2.376 29.7844 2.56533 29.6938 2.784C29.6031 2.99733 29.5578 3.22933 29.5578 3.48C29.5578 3.8 29.6351 4.06667 29.7898 4.28C29.9498 4.488 30.1578 4.66667 30.4138 4.816C30.6751 4.96533 30.9684 5.096 31.2938 5.208C31.6244 5.31467 31.9604 5.42667 32.3018 5.544C32.6484 5.66133 32.9844 5.79467 33.3098 5.944C33.6404 6.088 33.9338 6.272 34.1898 6.496C34.4511 6.72 34.6591 6.99467 34.8138 7.32C34.9738 7.64533 35.0538 8.04533 35.0538 8.52C35.0538 9.02133 34.9684 9.49333 34.7978 9.936C34.6271 10.3733 34.3764 10.7547 34.0458 11.08C33.7204 11.4053 33.3178 11.6613 32.8378 11.848C32.3631 12.0347 31.8218 12.128 31.2138 12.128C30.4671 12.128 29.7898 11.9947 29.1818 11.728C28.5738 11.456 28.0537 11.0907 27.6217 10.632L28.0698 9.896C28.1124 9.83733 28.1631 9.78933 28.2218 9.752C28.2858 9.70933 28.3551 9.688 28.4298 9.688C28.4991 9.688 28.5764 9.71733 28.6618 9.776C28.7524 9.82933 28.8538 9.89867 28.9658 9.984C29.0778 10.0693 29.2058 10.1627 29.3498 10.264C29.4938 10.3653 29.6564 10.4587 29.8378 10.544C30.0244 10.6293 30.2351 10.7013 30.4698 10.76C30.7044 10.8133 30.9684 10.84 31.2618 10.84C31.6298 10.84 31.9578 10.7893 32.2458 10.688C32.5338 10.5867 32.7764 10.4453 32.9738 10.264C33.1764 10.0773 33.3311 9.856 33.4378 9.6C33.5444 9.344 33.5978 9.05867 33.5978 8.744C33.5978 8.39733 33.5178 8.11467 33.3578 7.896C33.2031 7.672 32.9978 7.48533 32.7418 7.336C32.4858 7.18667 32.1924 7.06133 31.8618 6.96C31.5311 6.85333 31.1951 6.74667 30.8538 6.64C30.5124 6.528 30.1764 6.4 29.8458 6.256C29.5151 6.112 29.2218 5.92533 28.9658 5.696C28.7098 5.46667 28.5018 5.18133 28.3418 4.84C28.1871 4.49333 28.1098 4.06667 28.1098 3.56C28.1098 3.15467 28.1871 2.76267 28.3418 2.384C28.5018 2.00533 28.7311 1.66933 29.0298 1.376C29.3338 1.08267 29.7044 0.848 30.1418 0.672C30.5844 0.495999 31.0911 0.407999 31.6618 0.407999C32.3018 0.407999 32.8831 0.509333 33.4058 0.712C33.9338 0.914666 34.3978 1.208 34.7978 1.592L34.4218 2.328ZM39.0379 12.128C38.3979 12.128 37.9045 11.9493 37.5579 11.592C37.2165 11.2347 37.0459 10.72 37.0459 10.048V5.088H36.0699C35.9845 5.088 35.9125 5.064 35.8539 5.016C35.7952 4.96267 35.7659 4.88267 35.7659 4.776V4.208L37.0939 4.04L37.4219 1.536C37.4379 1.456 37.4725 1.392 37.5259 1.344C37.5845 1.29067 37.6592 1.264 37.7499 1.264H38.4699V4.056H40.8139V5.088H38.4699V9.952C38.4699 10.2933 38.5525 10.5467 38.7179 10.712C38.8832 10.8773 39.0965 10.96 39.3579 10.96C39.5072 10.96 39.6352 10.9413 39.7419 10.904C39.8539 10.8613 39.9499 10.816 40.0299 10.768C40.1099 10.72 40.1765 10.6773 40.2299 10.64C40.2885 10.5973 40.3392 10.576 40.3819 10.576C40.4565 10.576 40.5232 10.6213 40.5819 10.712L40.9979 11.392C40.7525 11.6213 40.4565 11.8027 40.1099 11.936C39.7632 12.064 39.4059 12.128 39.0379 12.128ZM43.6363 5.52C43.8923 4.96533 44.2069 4.53333 44.5803 4.224C44.9536 3.90933 45.4096 3.752 45.9483 3.752C46.1189 3.752 46.2816 3.77067 46.4363 3.808C46.5963 3.84533 46.7376 3.904 46.8603 3.984L46.7563 5.048C46.7243 5.18133 46.6443 5.248 46.5163 5.248C46.4416 5.248 46.3323 5.232 46.1883 5.2C46.0443 5.168 45.8816 5.152 45.7003 5.152C45.4443 5.152 45.2149 5.18933 45.0123 5.264C44.8149 5.33867 44.6363 5.45067 44.4763 5.6C44.3216 5.744 44.1803 5.92533 44.0523 6.144C43.9296 6.35733 43.8176 6.60267 43.7163 6.88V12H42.2843V3.896H43.1003C43.2549 3.896 43.3616 3.92533 43.4203 3.984C43.4789 4.04267 43.5189 4.144 43.5403 4.288L43.6363 5.52ZM51.2003 3.768C51.7923 3.768 52.3256 3.86667 52.8003 4.064C53.2749 4.26133 53.6803 4.54133 54.0163 4.904C54.3523 5.26667 54.6083 5.70667 54.7843 6.224C54.9656 6.736 55.0563 7.30933 55.0563 7.944C55.0563 8.584 54.9656 9.16 54.7843 9.672C54.6083 10.184 54.3523 10.6213 54.0163 10.984C53.6803 11.3467 53.2749 11.6267 52.8003 11.824C52.3256 12.016 51.7923 12.112 51.2003 12.112C50.6029 12.112 50.0643 12.016 49.5843 11.824C49.1096 11.6267 48.7043 11.3467 48.3683 10.984C48.0323 10.6213 47.7736 10.184 47.5923 9.672C47.4163 9.16 47.3283 8.584 47.3283 7.944C47.3283 7.30933 47.4163 6.736 47.5923 6.224C47.7736 5.70667 48.0323 5.26667 48.3683 4.904C48.7043 4.54133 49.1096 4.26133 49.5843 4.064C50.0643 3.86667 50.6029 3.768 51.2003 3.768ZM51.2003 11C52.0003 11 52.5976 10.7333 52.9923 10.2C53.3869 9.66133 53.5843 8.912 53.5843 7.952C53.5843 6.98667 53.3869 6.23467 52.9923 5.696C52.5976 5.15733 52.0003 4.888 51.2003 4.888C50.7949 4.888 50.4403 4.95733 50.1363 5.096C49.8376 5.23467 49.5869 5.43467 49.3843 5.696C49.1869 5.95733 49.0376 6.28 48.9363 6.664C48.8403 7.04267 48.7923 7.472 48.7923 7.952C48.7923 8.912 48.9896 9.66133 49.3843 10.2C49.7843 10.7333 50.3896 11 51.2003 11ZM58.2944 4.976C58.641 4.608 59.025 4.31467 59.4464 4.096C59.8677 3.87733 60.353 3.768 60.9024 3.768C61.345 3.768 61.7344 3.84267 62.0704 3.992C62.4117 4.136 62.6944 4.344 62.9184 4.616C63.1477 4.88267 63.321 5.20533 63.4384 5.584C63.5557 5.96267 63.6144 6.38133 63.6144 6.84V12H62.1824V6.84C62.1824 6.22667 62.041 5.752 61.7584 5.416C61.481 5.07467 61.057 4.904 60.4864 4.904C60.065 4.904 59.6704 5.00533 59.3024 5.208C58.9397 5.41067 58.6037 5.68533 58.2944 6.032V12H56.8624V0.216H58.2944V4.976ZM65.7843 12V3.896H66.6403C66.8429 3.896 66.9683 3.99467 67.0163 4.192L67.1203 5.024C67.4189 4.656 67.7549 4.35467 68.1283 4.12C68.5016 3.88533 68.9336 3.768 69.4243 3.768C69.9683 3.768 70.4083 3.92 70.7443 4.224C71.0856 4.528 71.3309 4.93867 71.4803 5.456C71.5976 5.16267 71.7469 4.90933 71.9283 4.696C72.1149 4.48267 72.3229 4.30667 72.5523 4.168C72.7816 4.02933 73.0243 3.928 73.2803 3.864C73.5416 3.8 73.8056 3.768 74.0723 3.768C74.4989 3.768 74.8776 3.83733 75.2083 3.976C75.5443 4.10933 75.8269 4.30667 76.0563 4.568C76.2909 4.82933 76.4696 5.152 76.5923 5.536C76.7149 5.91467 76.7763 6.34933 76.7763 6.84V12H75.3443V6.84C75.3443 6.20533 75.2056 5.72533 74.9283 5.4C74.6509 5.06933 74.2509 4.904 73.7283 4.904C73.4936 4.904 73.2696 4.94667 73.0563 5.032C72.8483 5.112 72.6643 5.232 72.5043 5.392C72.3443 5.552 72.2163 5.75467 72.1203 6C72.0296 6.24 71.9843 6.52 71.9843 6.84V12H70.5523V6.84C70.5523 6.18933 70.4216 5.704 70.1603 5.384C69.8989 5.064 69.5176 4.904 69.0163 4.904C68.6643 4.904 68.3389 5 68.0403 5.192C67.7416 5.37867 67.4669 5.63467 67.2163 5.96V12H65.7843ZM84.3645 7.064C84.3645 6.73333 84.3165 6.432 84.2205 6.16C84.1298 5.88267 83.9938 5.64533 83.8125 5.448C83.6365 5.24533 83.4205 5.09067 83.1645 4.984C82.9085 4.872 82.6178 4.816 82.2925 4.816C81.6098 4.816 81.0685 5.016 80.6685 5.416C80.2738 5.81067 80.0285 6.36 79.9325 7.064H84.3645ZM85.5165 10.864C85.3405 11.0773 85.1298 11.264 84.8845 11.424C84.6392 11.5787 84.3752 11.7067 84.0925 11.808C83.8152 11.9093 83.5272 11.984 83.2285 12.032C82.9298 12.0853 82.6338 12.112 82.3405 12.112C81.7805 12.112 81.2632 12.0187 80.7885 11.832C80.3192 11.64 79.9112 11.3627 79.5645 11C79.2232 10.632 78.9565 10.1787 78.7645 9.64C78.5725 9.10133 78.4765 8.48267 78.4765 7.784C78.4765 7.21867 78.5618 6.69067 78.7325 6.2C78.9085 5.70933 79.1592 5.28533 79.4845 4.928C79.8098 4.56533 80.2072 4.28267 80.6765 4.08C81.1458 3.872 81.6738 3.768 82.2605 3.768C82.7458 3.768 83.1938 3.85067 83.6045 4.016C84.0205 4.176 84.3778 4.41067 84.6765 4.72C84.9805 5.024 85.2178 5.40267 85.3885 5.856C85.5592 6.304 85.6445 6.816 85.6445 7.392C85.6445 7.616 85.6205 7.76533 85.5725 7.84C85.5245 7.91467 85.4338 7.952 85.3005 7.952H79.8845C79.9005 8.464 79.9698 8.90933 80.0925 9.288C80.2205 9.66667 80.3965 9.984 80.6205 10.24C80.8445 10.4907 81.1112 10.68 81.4205 10.808C81.7298 10.9307 82.0765 10.992 82.4605 10.992C82.8178 10.992 83.1245 10.952 83.3805 10.872C83.6418 10.7867 83.8658 10.696 84.0525 10.6C84.2392 10.504 84.3938 10.416 84.5165 10.336C84.6445 10.2507 84.7538 10.208 84.8445 10.208C84.9618 10.208 85.0525 10.2533 85.1165 10.344L85.5165 10.864ZM94.1825 3.896L89.6625 14.392C89.6145 14.4987 89.5532 14.584 89.4785 14.648C89.4092 14.712 89.2998 14.744 89.1505 14.744H88.0945L89.5745 11.528L86.2305 3.896H87.4625C87.5852 3.896 87.6812 3.928 87.7505 3.992C87.8252 4.05067 87.8758 4.11733 87.9025 4.192L90.0705 9.296C90.1558 9.52 90.2278 9.75467 90.2865 10C90.3612 9.74933 90.4412 9.512 90.5265 9.288L92.6305 4.192C92.6625 4.10667 92.7158 4.03733 92.7905 3.984C92.8705 3.92533 92.9585 3.896 93.0545 3.896H94.1825ZM100.646 7.064C100.646 6.73333 100.598 6.432 100.502 6.16C100.411 5.88267 100.275 5.64533 100.094 5.448C99.9178 5.24533 99.7018 5.09067 99.4458 4.984C99.1898 4.872 98.8991 4.816 98.5738 4.816C97.8911 4.816 97.3498 5.016 96.9498 5.416C96.5551 5.81067 96.3098 6.36 96.2138 7.064H100.646ZM101.798 10.864C101.622 11.0773 101.411 11.264 101.166 11.424C100.92 11.5787 100.656 11.7067 100.374 11.808C100.096 11.9093 99.8084 11.984 99.5098 12.032C99.2111 12.0853 98.9151 12.112 98.6218 12.112C98.0618 12.112 97.5444 12.0187 97.0698 11.832C96.6004 11.64 96.1924 11.3627 95.8458 11C95.5044 10.632 95.2378 10.1787 95.0458 9.64C94.8538 9.10133 94.7578 8.48267 94.7578 7.784C94.7578 7.21867 94.8431 6.69067 95.0138 6.2C95.1898 5.70933 95.4404 5.28533 95.7658 4.928C96.0911 4.56533 96.4884 4.28267 96.9578 4.08C97.4271 3.872 97.9551 3.768 98.5418 3.768C99.0271 3.768 99.4751 3.85067 99.8858 4.016C100.302 4.176 100.659 4.41067 100.958 4.72C101.262 5.024 101.499 5.40267 101.67 5.856C101.84 6.304 101.926 6.816 101.926 7.392C101.926 7.616 101.902 7.76533 101.854 7.84C101.806 7.91467 101.715 7.952 101.582 7.952H96.1658C96.1818 8.464 96.2511 8.90933 96.3738 9.288C96.5018 9.66667 96.6778 9.984 96.9018 10.24C97.1258 10.4907 97.3924 10.68 97.7018 10.808C98.0111 10.9307 98.3578 10.992 98.7418 10.992C99.0991 10.992 99.4058 10.952 99.6618 10.872C99.9231 10.7867 100.147 10.696 100.334 10.6C100.52 10.504 100.675 10.416 100.798 10.336C100.926 10.2507 101.035 10.208 101.126 10.208C101.243 10.208 101.334 10.2533 101.398 10.344L101.798 10.864ZM105.027 5.52C105.283 4.96533 105.598 4.53333 105.971 4.224C106.344 3.90933 106.8 3.752 107.339 3.752C107.51 3.752 107.672 3.77067 107.827 3.808C107.987 3.84533 108.128 3.904 108.251 3.984L108.147 5.048C108.115 5.18133 108.035 5.248 107.907 5.248C107.832 5.248 107.723 5.232 107.579 5.2C107.435 5.168 107.272 5.152 107.091 5.152C106.835 5.152 106.606 5.18933 106.403 5.264C106.206 5.33867 106.027 5.45067 105.867 5.6C105.712 5.744 105.571 5.92533 105.443 6.144C105.32 6.35733 105.208 6.60267 105.107 6.88V12H103.675V3.896H104.491C104.646 3.896 104.752 3.92533 104.811 3.984C104.87 4.04267 104.91 4.144 104.931 4.288L105.027 5.52Z" fill="white" fill-opacity="0.9"/>
<path d="M109.263 11.12C109.263 10.9813 109.287 10.8507 109.335 10.728C109.388 10.6053 109.458 10.4987 109.543 10.408C109.634 10.3173 109.74 10.2453 109.863 10.192C109.986 10.1387 110.116 10.112 110.255 10.112C110.394 10.112 110.524 10.1387 110.647 10.192C110.77 10.2453 110.876 10.3173 110.967 10.408C111.058 10.4987 111.13 10.6053 111.183 10.728C111.236 10.8507 111.263 10.9813 111.263 11.12C111.263 11.264 111.236 11.3973 111.183 11.52C111.13 11.6373 111.058 11.7413 110.967 11.832C110.876 11.9227 110.77 11.992 110.647 12.04C110.524 12.0933 110.394 12.12 110.255 12.12C110.116 12.12 109.986 12.0933 109.863 12.04C109.74 11.992 109.634 11.9227 109.543 11.832C109.458 11.7413 109.388 11.6373 109.335 11.52C109.287 11.3973 109.263 11.264 109.263 11.12Z" fill="#2684FF"/>
<defs>
<linearGradient id="paint0_linear_282_1120" x1="0" y1="15" x2="30.7282" y2="-4.6931" gradientUnits="userSpaceOnUse">
<stop stop-color="#0ACF83"/>
<stop offset="1" stop-color="#5BA2FF"/>
</linearGradient>
</defs>
</svg>
