<svg width="119" height="16" viewBox="0 0 119 16" fill="none" xmlns="http://www.w3.org/2000/svg">
<path d="M2.144 2.832C1.77067 2.832 1.46133 2.72 1.216 2.496C0.981333 2.272 0.864 1.98933 0.864 1.648C0.864 1.30667 0.981333 1.02933 1.216 0.815999C1.46133 0.591999 1.77067 0.48 2.144 0.48C2.51733 0.48 2.82133 0.591999 3.056 0.815999C3.30133 1.02933 3.424 1.30667 3.424 1.648C3.424 1.98933 3.30133 2.272 3.056 2.496C2.82133 2.72 2.51733 2.832 2.144 2.832ZM1.12 12V4.064H3.168V12H1.12ZM5.30563 12V4.064H7.12963L7.32163 5.552C7.60963 5.04 7.99896 4.63467 8.48962 4.336C8.99096 4.02667 9.57763 3.872 10.2496 3.872V6.032H9.67363C9.22563 6.032 8.82563 6.10133 8.47363 6.24C8.12163 6.37867 7.84429 6.61867 7.64163 6.96C7.44963 7.30133 7.35363 7.776 7.35363 8.384V12H5.30563ZM11.6494 12V4.064H13.4574L13.6334 5.136C13.8894 4.752 14.2254 4.448 14.6414 4.224C15.068 3.98933 15.5587 3.872 16.1134 3.872C17.34 3.872 18.2094 4.34667 18.7214 5.296C19.0094 4.85867 19.3934 4.512 19.8734 4.256C20.364 4 20.8974 3.872 21.4734 3.872C22.508 3.872 23.3027 4.18133 23.8574 4.8C24.412 5.41867 24.6894 6.32533 24.6894 7.52V12H22.6414V7.712C22.6414 7.02933 22.508 6.50667 22.2414 6.144C21.9854 5.78133 21.5854 5.6 21.0414 5.6C20.4867 5.6 20.0387 5.80267 19.6974 6.208C19.3667 6.61333 19.2014 7.17867 19.2014 7.904V12H17.1534V7.712C17.1534 7.02933 17.02 6.50667 16.7534 6.144C16.4867 5.78133 16.076 5.6 15.5214 5.6C14.9774 5.6 14.5347 5.80267 14.1934 6.208C13.8627 6.61333 13.6974 7.17867 13.6974 7.904V12H11.6494ZM27.7378 2.832C27.3644 2.832 27.0551 2.72 26.8098 2.496C26.5751 2.272 26.4578 1.98933 26.4578 1.648C26.4578 1.30667 26.5751 1.02933 26.8098 0.815999C27.0551 0.591999 27.3644 0.48 27.7378 0.48C28.1111 0.48 28.4151 0.591999 28.6498 0.815999C28.8951 1.02933 29.0178 1.30667 29.0178 1.648C29.0178 1.98933 28.8951 2.272 28.6498 2.496C28.4151 2.72 28.1111 2.832 27.7378 2.832ZM26.7138 12V4.064H28.7618V12H26.7138Z" fill="url(#paint0_linear_283_1125)"/>
<path d="M34.6114 12.192C33.79 12.192 33.0754 12.0427 32.4674 11.744C31.8594 11.4453 31.39 11.0293 31.0594 10.496C30.7287 9.96267 30.5634 9.344 30.5634 8.64H31.9714C31.9714 9.07733 32.0727 9.48267 32.2754 9.856C32.478 10.2187 32.7714 10.512 33.1554 10.736C33.55 10.9493 34.0354 11.056 34.6114 11.056C35.3687 11.056 35.9554 10.8747 36.3714 10.512C36.7874 10.1493 36.9954 9.696 36.9954 9.152C36.9954 8.704 36.8994 8.34667 36.7074 8.08C36.5154 7.80267 36.254 7.57867 35.9234 7.408C35.6034 7.23733 35.23 7.088 34.8034 6.96C34.3874 6.832 33.95 6.688 33.4914 6.528C32.6274 6.22933 31.9874 5.86133 31.5714 5.424C31.1554 4.976 30.9474 4.39467 30.9474 3.68C30.9367 3.08267 31.0754 2.55467 31.3634 2.096C31.6514 1.62667 32.0567 1.264 32.5794 1.008C33.1127 0.741333 33.742 0.608 34.4674 0.608C35.182 0.608 35.8007 0.741333 36.3234 1.008C36.8567 1.27467 37.2674 1.64267 37.5554 2.112C37.854 2.58133 38.0087 3.11467 38.0194 3.712H36.6114C36.6114 3.40267 36.5314 3.09867 36.3714 2.8C36.2114 2.49067 35.966 2.24 35.6354 2.048C35.3154 1.856 34.91 1.76 34.4194 1.76C33.8114 1.74933 33.31 1.904 32.9154 2.224C32.5314 2.544 32.3394 2.98667 32.3394 3.552C32.3394 4.032 32.4727 4.4 32.7394 4.656C33.0167 4.912 33.4007 5.12533 33.8914 5.296C34.382 5.456 34.9474 5.64267 35.5874 5.856C36.1207 6.048 36.6007 6.272 37.0274 6.528C37.454 6.784 37.7847 7.11467 38.0194 7.52C38.2647 7.92533 38.3874 8.44267 38.3874 9.072C38.3874 9.60533 38.2487 10.112 37.9714 10.592C37.694 11.0613 37.2727 11.4453 36.7074 11.744C36.1527 12.0427 35.454 12.192 34.6114 12.192ZM43.3494 12C42.624 12 42.0534 11.824 41.6374 11.472C41.2214 11.12 41.0134 10.4853 41.0134 9.568V5.2H39.6374V4.064H41.0134L41.1894 2.16H42.3574V4.064H44.6934V5.2H42.3574V9.568C42.3574 10.0693 42.4587 10.4107 42.6614 10.592C42.864 10.7627 43.2214 10.848 43.7334 10.848H44.5654V12H43.3494ZM46.4009 12V4.064H47.6169L47.7289 5.584C47.9742 5.06133 48.3475 4.64533 48.8489 4.336C49.3502 4.02667 49.9689 3.872 50.7049 3.872V5.28H50.3369C49.8675 5.28 49.4355 5.36533 49.0409 5.536C48.6462 5.696 48.3315 5.97333 48.0969 6.368C47.8622 6.76267 47.7449 7.30667 47.7449 8V12H46.4009ZM55.5325 12.192C54.7858 12.192 54.1138 12.0213 53.5165 11.68C52.9192 11.3387 52.4445 10.8587 52.0925 10.24C51.7512 9.61067 51.5805 8.87467 51.5805 8.032C51.5805 7.18933 51.7565 6.45867 52.1085 5.84C52.4605 5.21067 52.9352 4.72533 53.5325 4.384C54.1405 4.04267 54.8178 3.872 55.5645 3.872C56.3112 3.872 56.9832 4.04267 57.5805 4.384C58.1778 4.72533 58.6472 5.21067 58.9885 5.84C59.3405 6.45867 59.5165 7.18933 59.5165 8.032C59.5165 8.87467 59.3405 9.61067 58.9885 10.24C58.6365 10.8587 58.1565 11.3387 57.5485 11.68C56.9512 12.0213 56.2792 12.192 55.5325 12.192ZM55.5325 11.04C55.9912 11.04 56.4178 10.928 56.8125 10.704C57.2072 10.48 57.5272 10.144 57.7725 9.696C58.0178 9.248 58.1405 8.69333 58.1405 8.032C58.1405 7.37067 58.0178 6.816 57.7725 6.368C57.5378 5.92 57.2232 5.584 56.8285 5.36C56.4338 5.136 56.0125 5.024 55.5645 5.024C55.1058 5.024 54.6792 5.136 54.2845 5.36C53.8898 5.584 53.5698 5.92 53.3245 6.368C53.0792 6.816 52.9565 7.37067 52.9565 8.032C52.9565 8.69333 53.0792 9.248 53.3245 9.696C53.5698 10.144 53.8845 10.48 54.2685 10.704C54.6632 10.928 55.0845 11.04 55.5325 11.04ZM61.3853 12V0.48H62.7293V5.424C62.9959 4.93333 63.3746 4.55467 63.8653 4.288C64.3559 4.01067 64.8893 3.872 65.4653 3.872C66.3826 3.872 67.1186 4.16 67.6733 4.736C68.2279 5.30133 68.5052 6.176 68.5052 7.36V12H67.1773V7.504C67.1773 5.85067 66.5106 5.024 65.1773 5.024C64.4839 5.024 63.9026 5.27467 63.4333 5.776C62.9639 6.26667 62.7293 6.97067 62.7293 7.888V12H61.3853ZM70.5415 12V4.064H71.7575L71.8535 5.216C72.1095 4.78933 72.4508 4.45867 72.8775 4.224C73.3042 3.98933 73.7842 3.872 74.3175 3.872C74.9468 3.872 75.4855 4 75.9335 4.256C76.3922 4.512 76.7442 4.90133 76.9895 5.424C77.2668 4.944 77.6455 4.56533 78.1255 4.288C78.6162 4.01067 79.1442 3.872 79.7095 3.872C80.6588 3.872 81.4162 4.16 81.9815 4.736C82.5468 5.30133 82.8295 6.176 82.8295 7.36V12H81.5015V7.504C81.5015 6.68267 81.3362 6.064 81.0055 5.648C80.6748 5.232 80.2002 5.024 79.5815 5.024C78.9415 5.024 78.4082 5.27467 77.9815 5.776C77.5655 6.26667 77.3575 6.97067 77.3575 7.888V12H76.0135V7.504C76.0135 6.68267 75.8482 6.064 75.5175 5.648C75.1868 5.232 74.7122 5.024 74.0935 5.024C73.4642 5.024 72.9362 5.27467 72.5095 5.776C72.0935 6.26667 71.8855 6.97067 71.8855 7.888V12H70.5415ZM88.422 12.192C87.6647 12.192 86.9927 12.0213 86.406 11.68C85.8193 11.328 85.3553 10.8427 85.014 10.224C84.6833 9.60533 84.518 8.87467 84.518 8.032C84.518 7.2 84.6833 6.47467 85.014 5.856C85.3447 5.22667 85.8033 4.74133 86.39 4.4C86.9873 4.048 87.6753 3.872 88.454 3.872C89.222 3.872 89.8833 4.048 90.438 4.4C91.0033 4.74133 91.4353 5.19467 91.734 5.76C92.0327 6.32533 92.182 6.93333 92.182 7.584C92.182 7.70133 92.1767 7.81867 92.166 7.936C92.166 8.05333 92.166 8.18667 92.166 8.336H85.846C85.878 8.944 86.0167 9.45067 86.262 9.856C86.518 10.2507 86.8327 10.5493 87.206 10.752C87.59 10.9547 87.9953 11.056 88.422 11.056C88.9767 11.056 89.4407 10.928 89.814 10.672C90.1873 10.416 90.4593 10.0693 90.63 9.632H91.958C91.7447 10.368 91.334 10.9813 90.726 11.472C90.1287 11.952 89.3607 12.192 88.422 12.192ZM88.422 5.008C87.782 5.008 87.2113 5.20533 86.71 5.6C86.2193 5.984 85.9367 6.54933 85.862 7.296H90.854C90.822 6.58133 90.5767 6.02133 90.118 5.616C89.6593 5.21067 89.094 5.008 88.422 5.008ZM94.5149 15.52L96.4829 11.232H96.0189L92.8669 4.064H94.3229L96.9469 10.24L99.7309 4.064H101.123L95.9229 15.52H94.5149ZM105.36 12.192C104.602 12.192 103.93 12.0213 103.344 11.68C102.757 11.328 102.293 10.8427 101.952 10.224C101.621 9.60533 101.456 8.87467 101.456 8.032C101.456 7.2 101.621 6.47467 101.952 5.856C102.282 5.22667 102.741 4.74133 103.328 4.4C103.925 4.048 104.613 3.872 105.391 3.872C106.16 3.872 106.821 4.048 107.376 4.4C107.941 4.74133 108.373 5.19467 108.672 5.76C108.97 6.32533 109.12 6.93333 109.12 7.584C109.12 7.70133 109.114 7.81867 109.104 7.936C109.104 8.05333 109.104 8.18667 109.104 8.336H102.784C102.816 8.944 102.954 9.45067 103.2 9.856C103.456 10.2507 103.77 10.5493 104.144 10.752C104.528 10.9547 104.933 11.056 105.36 11.056C105.914 11.056 106.378 10.928 106.752 10.672C107.125 10.416 107.397 10.0693 107.568 9.632H108.896C108.682 10.368 108.272 10.9813 107.664 11.472C107.066 11.952 106.298 12.192 105.36 12.192ZM105.36 5.008C104.72 5.008 104.149 5.20533 103.648 5.6C103.157 5.984 102.874 6.54933 102.799 7.296H107.792C107.76 6.58133 107.514 6.02133 107.056 5.616C106.597 5.21067 106.032 5.008 105.36 5.008ZM110.901 12V4.064H112.117L112.229 5.584C112.474 5.06133 112.848 4.64533 113.349 4.336C113.85 4.02667 114.469 3.872 115.205 3.872V5.28H114.837C114.368 5.28 113.936 5.36533 113.541 5.536C113.146 5.696 112.832 5.97333 112.597 6.368C112.362 6.76267 112.245 7.30667 112.245 8V12H110.901Z" fill="white" fill-opacity="0.9"/>
<path d="M117.177 12.08C116.911 12.08 116.687 11.9947 116.505 11.824C116.335 11.6427 116.249 11.424 116.249 11.168C116.249 10.912 116.335 10.6987 116.505 10.528C116.687 10.3467 116.911 10.256 117.177 10.256C117.433 10.256 117.647 10.3467 117.817 10.528C117.999 10.6987 118.089 10.912 118.089 11.168C118.089 11.424 117.999 11.6427 117.817 11.824C117.647 11.9947 117.433 12.08 117.177 12.08Z" fill="#2684FF"/>
<defs>
<linearGradient id="paint0_linear_283_1125" x1="0" y1="17" x2="33.2521" y2="-3.3048" gradientUnits="userSpaceOnUse">
<stop stop-color="#0ACF83"/>
<stop offset="1" stop-color="#5BA2FF"/>
</linearGradient>
</defs>
</svg>
