<svg width="25" height="25" viewBox="0 0 25 25" fill="none" xmlns="http://www.w3.org/2000/svg">
<rect width="25" height="25" fill="#1E1E1E"/>
<path d="M6.144 8.832C5.77067 8.832 5.46133 8.72 5.216 8.496C4.98133 8.272 4.864 7.98933 4.864 7.648C4.864 7.30667 4.98133 7.02933 5.216 6.816C5.46133 6.592 5.77067 6.48 6.144 6.48C6.51733 6.48 6.82133 6.592 7.056 6.816C7.30133 7.02933 7.424 7.30667 7.424 7.648C7.424 7.98933 7.30133 8.272 7.056 8.496C6.82133 8.72 6.51733 8.832 6.144 8.832ZM5.12 18V10.064H7.168V18H5.12Z" fill="url(#paint0_linear_284_1128)"/>
<path d="M13.0176 18.192C12.1963 18.192 11.4816 18.0427 10.8736 17.744C10.2656 17.4453 9.79629 17.0293 9.46563 16.496C9.13496 15.9627 8.96963 15.344 8.96963 14.64H10.3776C10.3776 15.0773 10.479 15.4827 10.6816 15.856C10.8843 16.2187 11.1776 16.512 11.5616 16.736C11.9563 16.9493 12.4416 17.056 13.0176 17.056C13.775 17.056 14.3616 16.8747 14.7776 16.512C15.1936 16.1493 15.4016 15.696 15.4016 15.152C15.4016 14.704 15.3056 14.3467 15.1136 14.08C14.9216 13.8027 14.6603 13.5787 14.3296 13.408C14.0096 13.2373 13.6363 13.088 13.2096 12.96C12.7936 12.832 12.3563 12.688 11.8976 12.528C11.0336 12.2293 10.3936 11.8613 9.97763 11.424C9.56163 10.976 9.35363 10.3947 9.35363 9.68C9.34296 9.08267 9.48163 8.55467 9.76963 8.096C10.0576 7.62667 10.463 7.264 10.9856 7.008C11.519 6.74133 12.1483 6.608 12.8736 6.608C13.5883 6.608 14.207 6.74133 14.7296 7.008C15.263 7.27467 15.6736 7.64267 15.9616 8.112C16.2603 8.58133 16.415 9.11467 16.4256 9.712H15.0176C15.0176 9.40267 14.9376 9.09867 14.7776 8.8C14.6176 8.49067 14.3723 8.24 14.0416 8.048C13.7216 7.856 13.3163 7.76 12.8256 7.76C12.2176 7.74933 11.7163 7.904 11.3216 8.224C10.9376 8.544 10.7456 8.98667 10.7456 9.552C10.7456 10.032 10.879 10.4 11.1456 10.656C11.423 10.912 11.807 11.1253 12.2976 11.296C12.7883 11.456 13.3536 11.6427 13.9936 11.856C14.527 12.048 15.007 12.272 15.4336 12.528C15.8603 12.784 16.191 13.1147 16.4256 13.52C16.671 13.9253 16.7936 14.4427 16.7936 15.072C16.7936 15.6053 16.655 16.112 16.3776 16.592C16.1003 17.0613 15.679 17.4453 15.1136 17.744C14.559 18.0427 13.8603 18.192 13.0176 18.192Z" fill="white" fill-opacity="0.9"/>
<path d="M19.0836 18.08C18.817 18.08 18.593 17.9947 18.4116 17.824C18.241 17.6427 18.1556 17.424 18.1556 17.168C18.1556 16.912 18.241 16.6987 18.4116 16.528C18.593 16.3467 18.817 16.256 19.0836 16.256C19.3396 16.256 19.553 16.3467 19.7236 16.528C19.905 16.6987 19.9956 16.912 19.9956 17.168C19.9956 17.424 19.905 17.6427 19.7236 17.824C19.553 17.9947 19.3396 18.08 19.0836 18.08Z" fill="#2684FF"/>
<defs>
<linearGradient id="paint0_linear_284_1128" x1="4" y1="23" x2="10.4723" y2="22.4354" gradientUnits="userSpaceOnUse">
<stop stop-color="#0ACF83"/>
<stop offset="1" stop-color="#5BA2FF"/>
</linearGradient>
</defs>
</svg>
