<svg width="171" height="43" viewBox="0 0 171 43" fill="none" xmlns="http://www.w3.org/2000/svg">
<path d="M8.424 28.16C7.63467 28.16 7.06933 27.9893 6.728 27.648C6.38667 27.2853 6.216 26.6133 6.216 25.632C6.216 24.9707 6.28 24.128 6.408 23.104C6.55733 22.0587 6.792 20.6293 7.112 18.816C7.66667 15.4667 8.104 12.5653 8.424 10.112C8.616 8.576 8.712 7.296 8.712 6.272C8.712 5.312 8.36 4.832 7.656 4.832C7.10133 4.832 6.42933 5.12 5.64 5.696C4.872 6.25067 4.01867 7.14667 3.08 8.384C2.78133 8.78933 2.45067 8.992 2.088 8.992C1.78933 8.992 1.52267 8.85333 1.288 8.576C1.07467 8.27733 0.968 7.94667 0.968 7.584C0.968 7.24267 1.032 6.90133 1.16 6.56C1.30933 6.19733 1.544 5.792 1.864 5.344C2.888 3.91467 4.02933 2.816 5.288 2.048C6.54667 1.25867 7.80533 0.863998 9.064 0.863998C10.2373 0.863998 11.1333 1.23733 11.752 1.984C12.392 2.73067 12.712 3.81867 12.712 5.248C12.712 5.824 12.6587 6.50667 12.552 7.296C12.4453 8.064 12.3493 8.69333 12.264 9.184C12.1787 9.67467 12.1147 10.016 12.072 10.208C13.288 6.73067 14.6533 4.30933 16.168 2.944C17.6827 1.55733 19.3467 0.863998 21.16 0.863998C22.5467 0.863998 23.6347 1.35467 24.424 2.336C25.2347 3.31733 25.64 4.704 25.64 6.496C25.64 7.2 25.544 8.07467 25.352 9.12C26.4187 6.176 27.6667 4.064 29.096 2.784C30.5253 1.504 32.168 0.863998 34.024 0.863998C35.5173 0.863998 36.6587 1.344 37.448 2.304C38.2587 3.264 38.664 4.608 38.664 6.336C38.664 7.27467 38.5253 8.416 38.248 9.76L36.296 18.912C36.0827 19.9787 35.976 20.896 35.976 21.664C35.976 22.56 36.1787 23.232 36.584 23.68C37.0107 24.128 37.5973 24.352 38.344 24.352C39.048 24.352 39.7307 24.1173 40.392 23.648C41.0747 23.1787 41.8747 22.4 42.792 21.312C43.048 21.0133 43.336 20.864 43.656 20.864C43.9333 20.864 44.1467 20.992 44.296 21.248C44.4667 21.504 44.552 21.856 44.552 22.304C44.552 23.136 44.3493 23.7973 43.944 24.288C42.8347 25.632 41.736 26.6133 40.648 27.232C39.56 27.8507 38.4187 28.16 37.224 28.16C35.4107 28.16 33.992 27.6267 32.968 26.56C31.944 25.472 31.432 24.0213 31.432 22.208C31.432 20.9493 31.688 19.1253 32.2 16.736L33.48 10.88C33.5227 10.688 33.5973 10.3467 33.704 9.856C33.8107 9.36533 33.896 8.90667 33.96 8.48C34.024 8.032 34.056 7.59467 34.056 7.168C34.056 6.42133 33.9067 5.86667 33.608 5.504C33.3307 5.12 32.9253 4.928 32.392 4.928C31.3893 4.928 30.3333 5.57867 29.224 6.88C28.136 8.16 27.0907 10.2933 26.088 13.28C25.1067 16.2667 24.3067 20.1493 23.688 24.928C23.5387 26.208 23.272 27.072 22.888 27.52C22.5253 27.9467 21.928 28.16 21.096 28.16C20.3707 28.16 19.8373 27.9893 19.496 27.648C19.176 27.3067 19.016 26.6667 19.016 25.728C19.016 24.8533 19.1333 23.712 19.368 22.304C19.6027 20.8747 19.9013 19.2 20.264 17.28C21.2453 12.1173 21.736 8.78933 21.736 7.296C21.736 6.48533 21.576 5.888 21.256 5.504C20.9573 5.12 20.4987 4.928 19.88 4.928C18.8347 4.928 17.7573 5.52533 16.648 6.72C15.5387 7.89333 14.4507 9.99467 13.384 13.024C12.3387 16.032 11.464 20.1067 10.76 25.248C10.6107 26.336 10.3867 27.0933 10.088 27.52C9.81067 27.9467 9.256 28.16 8.424 28.16ZM56.2455 20.864C56.5228 20.864 56.7362 20.992 56.8855 21.248C57.0562 21.504 57.1415 21.856 57.1415 22.304C57.1415 23.1573 56.9388 23.8187 56.5335 24.288C55.7442 25.248 54.6242 26.1333 53.1735 26.944C51.7442 27.7547 50.2082 28.16 48.5655 28.16C46.3255 28.16 44.5868 27.552 43.3495 26.336C42.1122 25.12 41.4935 23.456 41.4935 21.344C41.4935 19.872 41.8028 18.5067 42.4215 17.248C43.0402 15.968 43.8935 14.9547 44.9815 14.208C46.0908 13.4613 47.3388 13.088 48.7255 13.088C49.9628 13.088 50.9548 13.4613 51.7015 14.208C52.4482 14.9333 52.8215 15.9253 52.8215 17.184C52.8215 18.656 52.2882 19.9253 51.2215 20.992C50.1762 22.0373 48.3948 22.8693 45.8775 23.488C46.4108 24.4693 47.4242 24.96 48.9175 24.96C49.8775 24.96 50.9655 24.6293 52.1815 23.968C53.4188 23.2853 54.4855 22.4 55.3815 21.312C55.6375 21.0133 55.9255 20.864 56.2455 20.864ZM48.1815 16.224C47.3922 16.224 46.7202 16.6827 46.1655 17.6C45.6322 18.5173 45.3655 19.6267 45.3655 20.928V20.992C46.6242 20.6933 47.6162 20.2453 48.3415 19.648C49.0668 19.0507 49.4295 18.3573 49.4295 17.568C49.4295 17.1627 49.3122 16.8427 49.0775 16.608C48.8642 16.352 48.5655 16.224 48.1815 16.224ZM68.808 20.864C69.0853 20.864 69.2987 20.992 69.448 21.248C69.6187 21.504 69.704 21.856 69.704 22.304C69.704 23.1573 69.5013 23.8187 69.096 24.288C68.3067 25.248 67.1867 26.1333 65.736 26.944C64.3067 27.7547 62.7707 28.16 61.128 28.16C58.888 28.16 57.1493 27.552 55.912 26.336C54.6747 25.12 54.056 23.456 54.056 21.344C54.056 19.872 54.3653 18.5067 54.984 17.248C55.6027 15.968 56.456 14.9547 57.544 14.208C58.6533 13.4613 59.9013 13.088 61.288 13.088C62.5253 13.088 63.5173 13.4613 64.264 14.208C65.0107 14.9333 65.384 15.9253 65.384 17.184C65.384 18.656 64.8507 19.9253 63.784 20.992C62.7387 22.0373 60.9573 22.8693 58.44 23.488C58.9733 24.4693 59.9867 24.96 61.48 24.96C62.44 24.96 63.528 24.6293 64.744 23.968C65.9813 23.2853 67.048 22.4 67.944 21.312C68.2 21.0133 68.488 20.864 68.808 20.864ZM60.744 16.224C59.9547 16.224 59.2827 16.6827 58.728 17.6C58.1947 18.5173 57.928 19.6267 57.928 20.928V20.992C59.1867 20.6933 60.1787 20.2453 60.904 19.648C61.6293 19.0507 61.992 18.3573 61.992 17.568C61.992 17.1627 61.8747 16.8427 61.64 16.608C61.4267 16.352 61.128 16.224 60.744 16.224ZM81.3705 20.864C81.6478 20.864 81.8612 20.992 82.0105 21.248C82.1812 21.504 82.2665 21.856 82.2665 22.304C82.2665 23.1573 82.0638 23.8187 81.6585 24.288C80.7412 25.4187 79.7385 26.3467 78.6505 27.072C77.5625 27.7973 76.3145 28.16 74.9065 28.16C70.5545 28.16 68.3785 25.0987 68.3785 18.976C68.3785 18.0373 68.4105 17.088 68.4745 16.128H67.2265C66.5865 16.128 66.1492 16.0107 65.9145 15.776C65.7012 15.5413 65.5945 15.168 65.5945 14.656C65.5945 13.4613 66.0745 12.864 67.0345 12.864H68.8585C69.2212 10.5173 69.7758 8.37333 70.5225 6.432C71.2692 4.49067 72.1652 2.944 73.2105 1.792C74.2772 0.639999 75.4185 0.0639992 76.6345 0.0639992C77.5305 0.0639992 78.2345 0.458666 78.7465 1.248C79.2585 2.03733 79.5145 3.02933 79.5145 4.224C79.5145 7.53067 78.1278 10.4107 75.3545 12.864H78.9385C79.2798 12.864 79.5252 12.9387 79.6745 13.088C79.8238 13.2373 79.8985 13.5147 79.8985 13.92C79.8985 15.392 78.6932 16.128 76.2825 16.128H72.3785C72.3358 17.1947 72.3145 18.0267 72.3145 18.624C72.3145 20.8427 72.5705 22.4 73.0825 23.296C73.6158 24.192 74.4478 24.64 75.5785 24.64C76.4958 24.64 77.3065 24.3627 78.0105 23.808C78.7145 23.2533 79.5465 22.4213 80.5065 21.312C80.7625 21.0133 81.0505 20.864 81.3705 20.864ZM75.7705 3.136C75.4505 3.136 75.0878 3.54133 74.6825 4.352C74.2985 5.14133 73.9252 6.25067 73.5625 7.68C73.2212 9.088 72.9332 10.656 72.6985 12.384C73.9572 11.296 74.8958 10.08 75.5145 8.736C76.1545 7.37067 76.4745 6.13333 76.4745 5.024C76.4745 3.76533 76.2398 3.136 75.7705 3.136ZM82.925 28.16C81.965 28.16 81.1757 27.7227 80.557 26.848C79.9597 25.952 79.661 24.8427 79.661 23.52C79.661 21.92 79.7677 20.4587 79.981 19.136C80.1943 17.792 80.5463 16.3733 81.037 14.88C81.2503 14.24 81.549 13.7813 81.933 13.504C82.317 13.2267 82.925 13.088 83.757 13.088C84.2263 13.088 84.5463 13.1627 84.717 13.312C84.909 13.4613 85.005 13.6853 85.005 13.984C85.005 14.1547 84.8877 14.7307 84.653 15.712C84.4397 16.5013 84.269 17.216 84.141 17.856C83.7143 20.096 83.501 21.5893 83.501 22.336C83.501 22.784 83.5543 23.104 83.661 23.296C83.7677 23.4667 83.9383 23.552 84.173 23.552C84.493 23.552 84.8877 23.232 85.357 22.592C85.8477 21.952 86.3597 20.9813 86.893 19.68C87.4477 18.3787 87.981 16.7787 88.493 14.88C88.6637 14.24 88.9197 13.7813 89.261 13.504C89.6237 13.2267 90.157 13.088 90.861 13.088C91.3517 13.088 91.693 13.152 91.885 13.28C92.077 13.3867 92.173 13.6 92.173 13.92C92.173 14.4533 91.9063 15.9147 91.373 18.304C90.7757 21.0347 90.477 22.72 90.477 23.36C90.477 23.7653 90.5623 24.0853 90.733 24.32C90.9037 24.5333 91.1277 24.64 91.405 24.64C91.8317 24.64 92.333 24.384 92.909 23.872C93.5063 23.3387 94.2957 22.4853 95.277 21.312C95.533 21.0133 95.821 20.864 96.141 20.864C96.4183 20.864 96.6317 20.992 96.781 21.248C96.9517 21.504 97.037 21.856 97.037 22.304C97.037 23.1573 96.8343 23.8187 96.429 24.288C95.5117 25.4187 94.5197 26.3467 93.453 27.072C92.4077 27.7973 91.213 28.16 89.869 28.16C88.845 28.16 88.0877 27.7653 87.597 26.976C87.1277 26.1867 86.893 25.0773 86.893 23.648C86.5303 25.0987 85.9863 26.2187 85.261 27.008C84.5357 27.776 83.757 28.16 82.925 28.16ZM107.114 18.24C107.114 19.9253 106.72 21.5253 105.93 23.04C105.162 24.5333 104.128 25.7493 102.826 26.688C101.546 27.6267 100.17 28.1173 98.6983 28.16C98.4209 32.2773 97.7916 35.712 96.8103 38.464C95.8289 41.2373 94.3889 42.624 92.4902 42.624C91.3382 42.624 90.4849 42.208 89.9302 41.376C89.3756 40.544 89.0982 39.392 89.0982 37.92C89.0982 35.8293 89.5782 33.3867 90.5382 30.592C91.4982 27.8187 92.9809 24.7573 94.9863 21.408C94.9863 18.2933 94.9649 16.128 94.9223 14.912C94.9009 14.2933 95.1463 13.8027 95.6583 13.44C96.1703 13.0773 96.8103 12.896 97.5783 12.896C98.0263 12.896 98.3463 12.992 98.5383 13.184C98.7516 13.3547 98.8689 13.7067 98.8903 14.24C98.8903 14.7733 98.9009 15.168 98.9223 15.424C99.6049 14.5707 100.277 13.9627 100.938 13.6C101.6 13.216 102.304 13.024 103.05 13.024C104.245 13.024 105.216 13.504 105.962 14.464C106.73 15.424 107.114 16.6827 107.114 18.24ZM98.8583 25.088C99.6263 24.9173 100.33 24.5013 100.97 23.84C101.632 23.1573 102.154 22.3253 102.538 21.344C102.922 20.3413 103.114 19.296 103.114 18.208C103.114 17.568 102.986 17.088 102.73 16.768C102.474 16.4267 102.133 16.256 101.706 16.256C100.938 16.256 100.01 17.0667 98.9223 18.688C98.9009 19.6267 98.8903 21.0027 98.8903 22.816C98.8903 23.7973 98.8796 24.5547 98.8583 25.088ZM92.7462 39.488C93.3223 39.488 93.8023 38.2293 94.1863 35.712C94.5703 33.216 94.8156 30.1013 94.9223 26.368C94.0049 28.5013 93.2796 30.5387 92.7462 32.48C92.2129 34.4213 91.9462 36.0533 91.9462 37.376C91.9462 38.0587 92.0316 38.5813 92.2022 38.944C92.3516 39.3067 92.5329 39.488 92.7462 39.488Z" fill="#009EEC"/>
<path d="M125.6 28.16C124.128 28.16 122.795 27.7973 121.6 27.072C120.427 26.3467 119.499 25.3013 118.816 23.936C118.133 22.5493 117.792 20.9173 117.792 19.04C117.792 15.7973 118.485 12.8 119.872 10.048C121.259 7.27467 123.307 5.056 126.016 3.392C128.725 1.70667 131.979 0.863998 135.776 0.863998C136.757 0.863998 137.803 0.938665 138.912 1.088C140.043 1.23733 141.067 1.46133 141.984 1.76C142.581 1.93067 142.88 2.35733 142.88 3.04C142.88 3.59467 142.667 4.11733 142.24 4.608C141.835 5.09867 141.355 5.344 140.8 5.344C140.629 5.344 140.501 5.33333 140.416 5.312C139.307 5.056 138.357 4.87467 137.568 4.768C136.779 4.64 135.947 4.576 135.072 4.576C132.363 4.576 130.059 5.23733 128.16 6.56C126.261 7.86133 124.843 9.58933 123.904 11.744C122.965 13.8987 122.496 16.224 122.496 18.72C122.496 20.5333 122.848 21.9413 123.552 22.944C124.277 23.9253 125.216 24.416 126.368 24.416C127.669 24.416 128.811 23.8827 129.792 22.816C130.773 21.7493 131.669 20.0213 132.48 17.632C133.291 15.2427 134.091 12 134.88 7.904C135.008 7.30667 135.264 6.90133 135.648 6.688C136.032 6.47467 136.544 6.368 137.184 6.368C138.699 6.368 139.456 6.85866 139.456 7.84C139.456 8.01067 139.424 8.224 139.36 8.48C138.805 10.5493 138.293 12.8427 137.824 15.36C137.376 17.856 137.152 19.7547 137.152 21.056C137.152 22.208 137.323 23.0507 137.664 23.584C138.005 24.096 138.528 24.352 139.232 24.352C139.915 24.352 140.565 24.128 141.184 23.68C141.803 23.2107 142.581 22.4213 143.52 21.312C143.776 21.0133 144.064 20.864 144.384 20.864C144.661 20.864 144.875 20.992 145.024 21.248C145.195 21.504 145.28 21.856 145.28 22.304C145.28 23.136 145.077 23.7973 144.672 24.288C143.627 25.5467 142.603 26.5067 141.6 27.168C140.597 27.8293 139.371 28.16 137.92 28.16C136.427 28.16 135.221 27.7333 134.304 26.88C133.387 26.0053 132.811 24.7787 132.576 23.2C130.997 26.5067 128.672 28.16 125.6 28.16ZM159.78 20.864C160.058 20.864 160.271 20.992 160.42 21.248C160.591 21.504 160.676 21.856 160.676 22.304C160.676 23.1573 160.474 23.8187 160.068 24.288C159.151 25.4187 158.159 26.3467 157.092 27.072C156.047 27.7973 154.852 28.16 153.508 28.16C152.378 28.16 151.46 27.7547 150.756 26.944C149.54 27.7333 148.271 28.1387 146.948 28.16C146.671 32.2773 146.042 35.712 145.06 38.464C144.079 41.2373 142.639 42.624 140.74 42.624C139.588 42.624 138.735 42.208 138.18 41.376C137.626 40.544 137.348 39.392 137.348 37.92C137.348 35.8293 137.828 33.3867 138.788 30.592C139.748 27.8187 141.231 24.7573 143.236 21.408C143.236 18.2933 143.215 16.128 143.172 14.912C143.151 14.2933 143.396 13.8027 143.908 13.44C144.42 13.0773 145.06 12.896 145.828 12.896C146.276 12.896 146.596 12.992 146.788 13.184C147.002 13.3547 147.119 13.7067 147.14 14.24C147.14 14.7733 147.151 15.168 147.172 15.424C147.855 14.5707 148.527 13.9627 149.188 13.6C149.85 13.216 150.554 13.024 151.3 13.024C152.495 13.024 153.466 13.504 154.212 14.464C154.98 15.424 155.364 16.6827 155.364 18.24C155.364 19.3707 155.183 20.4693 154.82 21.536C154.458 22.6027 153.956 23.5733 153.316 24.448C153.764 24.576 154.138 24.64 154.436 24.64C155.14 24.64 155.812 24.384 156.452 23.872C157.092 23.36 157.914 22.5067 158.916 21.312C159.172 21.0133 159.46 20.864 159.78 20.864ZM147.108 25.088C147.876 24.9173 148.58 24.5013 149.22 23.84C149.882 23.1573 150.404 22.3253 150.788 21.344C151.172 20.3413 151.364 19.296 151.364 18.208C151.364 17.568 151.236 17.088 150.98 16.768C150.724 16.4267 150.383 16.256 149.956 16.256C149.188 16.256 148.26 17.0667 147.172 18.688C147.151 19.6267 147.14 21.0027 147.14 22.816C147.14 23.7973 147.13 24.5547 147.108 25.088ZM140.996 39.488C141.572 39.488 142.052 38.2293 142.436 35.712C142.82 33.216 143.066 30.1013 143.172 26.368C142.255 28.5013 141.53 30.5387 140.996 32.48C140.463 34.4213 140.196 36.0533 140.196 37.376C140.196 38.0587 140.282 38.5813 140.452 38.944C140.602 39.3067 140.783 39.488 140.996 39.488ZM170.771 18.24C170.771 19.9253 170.376 21.5253 169.587 23.04C168.819 24.5333 167.784 25.7493 166.483 26.688C165.203 27.6267 163.827 28.1173 162.355 28.16C162.077 32.2773 161.448 35.712 160.467 38.464C159.485 41.2373 158.045 42.624 156.146 42.624C154.994 42.624 154.141 42.208 153.586 41.376C153.032 40.544 152.754 39.392 152.754 37.92C152.754 35.8293 153.234 33.3867 154.194 30.592C155.154 27.8187 156.637 24.7573 158.643 21.408C158.643 18.2933 158.621 16.128 158.579 14.912C158.557 14.2933 158.803 13.8027 159.315 13.44C159.827 13.0773 160.467 12.896 161.235 12.896C161.683 12.896 162.003 12.992 162.195 13.184C162.408 13.3547 162.525 13.7067 162.547 14.24C162.547 14.7733 162.557 15.168 162.579 15.424C163.261 14.5707 163.933 13.9627 164.595 13.6C165.256 13.216 165.96 13.024 166.707 13.024C167.901 13.024 168.872 13.504 169.619 14.464C170.387 15.424 170.771 16.6827 170.771 18.24ZM162.515 25.088C163.283 24.9173 163.987 24.5013 164.627 23.84C165.288 23.1573 165.811 22.3253 166.195 21.344C166.579 20.3413 166.771 19.296 166.771 18.208C166.771 17.568 166.643 17.088 166.387 16.768C166.131 16.4267 165.789 16.256 165.363 16.256C164.595 16.256 163.667 17.0667 162.579 18.688C162.557 19.6267 162.547 21.0027 162.547 22.816C162.547 23.7973 162.536 24.5547 162.515 25.088ZM156.402 39.488C156.979 39.488 157.459 38.2293 157.843 35.712C158.227 33.216 158.472 30.1013 158.579 26.368C157.661 28.5013 156.936 30.5387 156.402 32.48C155.869 34.4213 155.602 36.0533 155.602 37.376C155.602 38.0587 155.688 38.5813 155.858 38.944C156.008 39.3067 156.189 39.488 156.402 39.488Z" fill="#FF5E2C"/>
</svg>
